<svg width="512" height="512" viewBox="0 0 512 512" fill="none" xmlns="http://www.w3.org/2000/svg">
<path d="M114.368 201.984L150.168 474.088C151.216 482.048 158 488 166.032 488H345.968C354 488 360.784 482.048 361.832 474.088L389.472 264L400 184H132.352L114.368 201.984Z" fill="#FFA857"/>
<path d="M240 248V424C240 432.84 247.16 440 256 440C264.84 440 272 432.84 272 424V248C272 239.16 264.84 232 256 232C247.16 232 240 239.16 240 248Z" fill="#F2F8FF"/>
<path d="M176 248V424C176 432.84 183.16 440 192 440C200.84 440 208 432.84 208 424V248C208 239.16 200.84 232 192 232C183.16 232 176 239.16 176 248Z" fill="#F2F8FF"/>
<path d="M304 248V424C304 432.84 311.16 440 320 440C328.84 440 336 432.84 336 424V248C336 239.16 328.84 232 320 232C311.16 232 304 239.16 304 248Z" fill="#F2F8FF"/>
<path d="M240 136L272 152H312L296 112L264 104L240 136Z" fill="#6C3400"/>
<path d="M384 80L344 88V104L352 136L416 128L392 96L384 80Z" fill="#BF732D"/>
<path d="M241.376 29.728C235.128 23.48 225 23.48 218.752 29.728L37.728 210.744C31.48 216.992 31.48 227.12 37.728 233.368L60.352 256L264 52.352L241.376 29.728Z" fill="#FFA857"/>
<path opacity="0.12" d="M361.832 474.088L364.96 450.304C262.288 414.248 191.456 313.8 197.784 199.864L198.664 184H132.352L114.368 201.984L150.168 474.088C151.216 482.048 158 488 166.032 488H345.968C354 488 360.784 482.048 361.832 474.088V474.088Z" fill="#8E5703"/>
<path opacity="0.12" d="M236 52L46.176 241.824L60.352 256L264 52.352L241.376 29.728C235.128 23.48 225 23.48 218.752 29.728L216.24 32.24L236 52Z" fill="#303030"/>
<path d="M392 96L384 80L369.456 82.912L376 96L400 128L351.512 134.064L352 136L416 128L392 96Z" fill="#F2F8FF"/>
<path d="M280 120L292.8 152H312L296 112L264 104L256.424 114.104L280 120Z" fill="#F2F8FF"/>
<path d="M400 176H151.664L269.656 58.0079C271.16 56.5039 272 54.4719 272 52.3519C272 50.2319 271.16 48.1919 269.656 46.6959L247.032 24.0719C237.96 14.9999 222.152 14.9999 213.088 24.0719L194.816 42.3439L206.128 53.6559L224.408 35.3839C227.424 32.3599 232.696 32.3599 235.72 35.3839L252.696 52.3519L60.352 244.688L43.384 227.712C41.872 226.208 41.04 224.2 41.04 222.056C41.04 219.912 41.872 217.912 43.384 216.4L190.128 69.6559L178.816 58.3439L167.832 69.3279L156.52 58.0159C147.152 48.6479 131.928 48.6559 122.576 58.0159L66.008 114.584C56.648 123.944 56.648 139.168 66.008 148.528L77.32 159.84L32.064 205.096C27.528 209.632 25.032 215.656 25.032 222.072C25.032 228.488 27.528 234.512 32.064 239.04L54.688 261.672C56.192 263.16 58.232 264 60.352 264C62.472 264 64.512 263.16 66.008 261.656L108.552 219.112L142.24 475.136C143.808 487.024 154.032 496 166.032 496H345.968C357.968 496 368.192 487.024 369.768 475.128L397.408 265.04L381.544 262.952L353.904 473.032C353.376 477.008 349.968 480 345.968 480H166.032C162.032 480 158.624 477.008 158.104 473.04L122.816 204.848L135.664 192H390.88L385.752 230.96L401.616 233.048L407.936 185.048C408.24 182.76 407.544 180.464 406.024 178.728C404.496 176.992 402.304 176 400 176ZM77.328 137.208C74.208 134.088 74.208 129.016 77.328 125.888L133.896 69.3199C137.008 66.2079 142.088 66.1999 145.216 69.3199L156.528 80.6319L88.648 148.512L77.328 137.208Z" fill="black"/>
<path d="M232 248V424C232 437.232 242.768 448 256 448C269.232 448 280 437.232 280 424V248C280 234.768 269.232 224 256 224C242.768 224 232 234.768 232 248ZM264 248V424C264 428.408 260.408 432 256 432C251.592 432 248 428.408 248 424V248C248 243.592 251.592 240 256 240C260.408 240 264 243.592 264 248Z" fill="black"/>
<path d="M168 248V424C168 437.232 178.768 448 192 448C205.232 448 216 437.232 216 424V248C216 234.768 205.232 224 192 224C178.768 224 168 234.768 168 248ZM200 248V424C200 428.408 196.408 432 192 432C187.592 432 184 428.408 184 424V248C184 243.592 187.592 240 192 240C196.408 240 200 243.592 200 248Z" fill="black"/>
<path d="M296 248V424C296 437.232 306.768 448 320 448C333.232 448 344 437.232 344 424V248C344 234.768 333.232 224 320 224C306.768 224 296 234.768 296 248ZM328 248V424C328 428.408 324.408 432 320 432C315.592 432 312 428.408 312 424V248C312 243.592 315.592 240 320 240C324.408 240 328 243.592 328 248Z" fill="black"/>
<path d="M297.944 104.24L265.944 96.24C262.816 95.464 259.528 96.632 257.608 99.2L233.608 131.2C232.184 133.096 231.672 135.528 232.224 137.84C232.768 140.152 234.312 142.096 236.432 143.16L268.432 159.16C269.528 159.712 270.76 160 272 160H312C314.656 160 317.136 158.68 318.624 156.488C320.112 154.296 320.416 151.496 319.432 149.032L303.432 109.032C302.472 106.648 300.432 104.864 297.944 104.24V104.24ZM273.888 144L252.152 133.136L267.216 113.056L290.088 118.776L300.184 144H273.888Z" fill="black"/>
<path d="M398.832 91.776L391.16 76.424C389.544 73.192 385.952 71.448 382.432 72.16L342.432 80.16C338.688 80.904 336 84.184 336 88V104C336 104.656 336.08 105.304 336.24 105.944L344.24 137.944C345.136 141.536 348.368 144 351.992 144C352.328 144 352.656 143.984 352.992 143.936L416.992 135.936C419.824 135.584 422.248 133.752 423.36 131.12C424.472 128.488 424.104 125.472 422.392 123.192L398.832 91.776ZM358.04 127.184L352 103.016V94.56L379.576 89.048L384.84 99.584C385.056 100.016 385.312 100.424 385.6 100.808L401.328 121.784L358.04 127.184Z" fill="black"/>
<path d="M352 16H368V32H352V16Z" fill="black"/>
<path d="M422.432 65.656L432.184 78.344C449.872 64.76 472.568 59.48 494.432 63.84L497.576 48.152C471.144 42.872 443.768 49.256 422.432 65.656Z" fill="black"/>
<path d="M456 96H472V112H456V96Z" fill="black"/>
<path d="M384 56H400C400 42.768 410.768 32 424 32V16C401.944 16 384 33.944 384 56Z" fill="black"/>
</svg>
